<svg id="Layer_1" data-name="Layer 1" xmlns="http://www.w3.org/2000/svg" viewBox="0 0 1366 768"><defs><style>.cls-1{fill:#1c92ea;}.cls-2{font-size:51.91px;fill:#514f4f;font-family:Roboto-Light, Roboto;font-weight:300;}.cls-3{letter-spacing:-0.01em;}.cls-4{letter-spacing:-0.01em;}.cls-5{letter-spacing:0.01em;}.cls-6{fill:#19282d;}</style></defs><title>Logo ok</title><path class="cls-1" d="M714.57,215.26c0,12.18-9.21,18.42-27.09,18.42H650.64V197.11h36.84C705.36,197.11,714.57,203.34,714.57,215.26ZM703,113.76H547.23V249.12h50.31V158.37h97c46.42,0,70.76,17.61,73.89,43.66V179.2A65.44,65.44,0,0,0,703,113.76Z"/><path class="cls-1" d="M695.61,309.26h-45V270.79h45c18.42,0,28.17,6.23,28.17,19.24S714,309.26,695.61,309.26Zm47.68-60.14C764.69,256.71,778,273,778,296c0,32.77-27.09,52-78,52H597.54v45.84H753.46A65.44,65.44,0,0,0,818.9,328.4V249.12Z"/><text class="cls-2" transform="translate(316.44 639.47)">Comp<tspan class="cls-3" x="137.57" y="0">r</tspan><tspan x="154.55" y="0">ehensi</tspan><tspan class="cls-4" x="303.12" y="0">v</tspan><tspan x="327.76" y="0">e Sofwa</tspan><tspan class="cls-3" x="511.16" y="0">r</tspan><tspan x="528.14" y="0">e Se</tspan><tspan class="cls-5" x="625.15" y="0">r</tspan><tspan x="643.08" y="0">vice</tspan></text><path class="cls-6" d="M237.53,531.3h42.22L288,546.69H236.48a16.26,16.26,0,0,1-13.64-6.53,14.51,14.51,0,0,1-3.15-9.09v-73h17.84Z"/><path class="cls-6" d="M288.22,458.07h18V513q0,9.21,6.64,14.69a14.7,14.7,0,0,0,9.68,3.61h9.56q8.06,0,12.95-7.11A19.1,19.1,0,0,0,348.5,513V458.07h17.85V513a32.28,32.28,0,0,1-10.27,24.13,33.81,33.81,0,0,1-24,9.56H322.5a33.3,33.3,0,0,1-24.6-10.26A32.13,32.13,0,0,1,288.22,513Z"/><path class="cls-6" d="M457.39,483.38q0-10.72,10-18.19,9.68-7.11,23.09-7.12H502.4a46.86,46.86,0,0,1,21,5,30.25,30.25,0,0,1,6.76,4.66l-15.62,12a14.62,14.62,0,0,0-10.5-6.18,12.75,12.75,0,0,0-1.63-.11H490.51q-8.75,0-13.18,4.89a8,8,0,0,0-2,5q0,4.55,9.68,7.81,3,1.05,10.26,2.92,17.49,4.54,24.48,8.86,11.43,7,11.55,18.42,0,10.62-10.26,18.07-10.15,7.24-24,7.23h-11.9a50.77,50.77,0,0,1-21.92-5,28.78,28.78,0,0,1-7-4.66l15.4-11.9A16.65,16.65,0,0,0,483,531.19c.78.07,1.48.11,2.1.11H497q9.43,0,14.22-5a7.27,7.27,0,0,0,2.1-4.9q0-5.13-9.68-8.51-1.4-.58-16.91-4.78-17.83-4.78-24.25-11.55A18.85,18.85,0,0,1,457.39,483.38Z"/><path class="cls-6" d="M543.14,458.07h18.07v37.08h11.43l22.62-37.08h20.29l-28.1,44.31,29.39,44.31H596.43l-23.21-36.14h-12v36.14H543.14Z"/><path class="cls-6" d="M661.54,496.55l24.72-38.48h19.13l-26.12,42q-4.66,7.23-8.63,10.15v36.49h-18V510.43q-4.54-3.27-9-10.38l-26-42h19.12Z"/><path class="cls-6" d="M756.32,473.47H735.71v-15.4h30.17C756.36,461.67,756.32,473.47,756.32,473.47Zm24.13,73.22h-18v-73a14.45,14.45,0,0,1,6.76-12.48,17.4,17.4,0,0,1,10.14-3.15h28.47v15.4H787.75a7.29,7.29,0,0,0-7.3,7.29Z"/><path class="cls-6" d="M912,491.77V513a18,18,0,0,0,6.53,14.57,15.27,15.27,0,0,0,9.91,3.73h11.89a16.87,16.87,0,0,0,12.25-4.9,15.45,15.45,0,0,0,1.16-1.28L969.23,537q-6.53,6.18-20.17,8.74a46.12,46.12,0,0,1-8.75.93H928.42a33.3,33.3,0,0,1-24.6-10.26A32.13,32.13,0,0,1,894.14,513V491.77a32.27,32.27,0,0,1,10.26-24.13,33.82,33.82,0,0,1,24-9.57h11.89a50.86,50.86,0,0,1,21.93,5,28.9,28.9,0,0,1,7,4.66l-15.51,12a16.36,16.36,0,0,0-11.31-6.18c-.77-.07-1.47-.11-2.1-.11H928.42q-8,0-12.94,7.11A19,19,0,0,0,912,491.77Z"/><path class="cls-6" d="M1087.2,491.77V513a18,18,0,0,0,6.53,14.57,15.27,15.27,0,0,0,9.91,3.73h11.89a16.87,16.87,0,0,0,12.25-4.9,15.45,15.45,0,0,0,1.16-1.28l15.51,11.9q-6.53,6.18-20.17,8.74a46.12,46.12,0,0,1-8.75.93h-11.89a33.3,33.3,0,0,1-24.6-10.26,32.13,32.13,0,0,1-9.68-23.43V491.77a32.27,32.27,0,0,1,10.26-24.13,33.82,33.82,0,0,1,24-9.57h11.89a50.78,50.78,0,0,1,21.92,5,28.78,28.78,0,0,1,7,4.66l-15.51,12a16.36,16.36,0,0,0-11.31-6.18c-.78-.07-1.48-.11-2.1-.11h-11.89q-8,0-12.94,7.11A19,19,0,0,0,1087.2,491.77Z"/><path class="cls-6" d="M1197,547.86h-11.89a33.34,33.34,0,0,1-24.61-10.26,32.17,32.17,0,0,1-9.67-23.44V490.61a32.26,32.26,0,0,1,10.26-24.14,33.84,33.84,0,0,1,24-9.56H1197a33.3,33.3,0,0,1,24.6,10.26,32.14,32.14,0,0,1,9.68,23.44v23.55A32.29,32.29,0,0,1,1221,538.3,33.86,33.86,0,0,1,1197,547.86Zm-11.89-15.39H1197q8,0,12.94-7.23a19.36,19.36,0,0,0,3.39-11.08V490.61q0-9.21-6.65-14.7a14.73,14.73,0,0,0-9.68-3.61h-11.89q-8.05,0-12.95,7.11a19.16,19.16,0,0,0-3.49,11.2v23.55a18.08,18.08,0,0,0,6.53,14.58A15.27,15.27,0,0,0,1185.08,532.47Z"/><path class="cls-6" d="M833.92,510.55v13.87a6.88,6.88,0,0,0,6.88,6.88h36.37a4.14,4.14,0,0,1,3.64,2.16L888,546.69H832.87a16.58,16.58,0,0,1-13.64-6.41,14.71,14.71,0,0,1-3.26-9.21V473.7a14.45,14.45,0,0,1,6.76-12.48,17.4,17.4,0,0,1,10.14-3.15H888l-7.23,13.26a4.1,4.1,0,0,1-3.6,2.14H840.8a6.88,6.88,0,0,0-6.88,6.88v30.2Z"/><path class="cls-6" d="M851,493.63h25a0,0,0,0,1,0,0v0a14.09,14.09,0,0,1-14.09,14.09h-25a0,0,0,0,1,0,0v0A14.09,14.09,0,0,1,851,493.63Z"/><path class="cls-6" d="M396.24,510.55v13.87a6.88,6.88,0,0,0,6.88,6.88h36.37a4.15,4.15,0,0,1,3.64,2.16l7.22,13.23H395.19a16.58,16.58,0,0,1-13.64-6.41,14.65,14.65,0,0,1-3.26-9.21V473.7a14.45,14.45,0,0,1,6.76-12.48,17.4,17.4,0,0,1,10.14-3.15h55.16l-7.23,13.26a4.1,4.1,0,0,1-3.61,2.14H403.12a6.88,6.88,0,0,0-6.88,6.88v30.2Z"/><path class="cls-6" d="M413.31,493.63h25a0,0,0,0,1,0,0v0a14.09,14.09,0,0,1-14.09,14.09h-25a0,0,0,0,1,0,0v0A14.09,14.09,0,0,1,413.31,493.63Z"/><polygon class="cls-6" points="997.85 504.83 997.85 458.07 980.01 458.07 980.01 546.69 997.85 546.69 997.85 510.55 997.85 504.83"/><polygon class="cls-6" points="1041.21 510.55 1041.21 546.69 1059.17 546.69 1059.17 458.07 1041.21 458.07 1041.21 495.15 1041.21 510.55"/><path class="cls-6" d="M1014.11,494.09h25a0,0,0,0,1,0,0v0a14.09,14.09,0,0,1-14.09,14.09h-25a0,0,0,0,1,0,0v0a14.09,14.09,0,0,1,14.09-14.09Z"/><path class="cls-6" d="M209.15,517.89q-2-10.84-13.29-16.79a6,6,0,0,0,.82-.7,22.69,22.69,0,0,0,8-17.72,22.47,22.47,0,0,0-4.66-13.88q-7.94-10.73-24.26-10.73H134.88v14.84h0c0,.26,0,.52,0,.79v73H175.8q14.92,0,24.26-7t9.44-18A21.61,21.61,0,0,0,209.15,517.89ZM175.8,473.47a12.84,12.84,0,0,1,6.07,1.4,9.41,9.41,0,0,1,5.36,9,10.56,10.56,0,0,1-.93,4.32q-2.69,6.06-10.5,6.06H152.72V473.47Zm14.93,51.65q-4,6.18-14.93,6.18H152.72V509.73H175.8a22.19,22.19,0,0,1,10,2.1Q192,515,192,520.57A9,9,0,0,1,190.73,525.12Z"/></svg>